<svg width="244" height="60" viewBox="0 0 244 60" fill="none" xmlns="http://www.w3.org/2000/svg">
<rect width="244" height="60" fill="#FF7E44"/>
<path d="M207.871 28.6334L201.594 22.3658C201.363 22.1219 201.074 22 200.727 22C200.381 22 200.092 22.122 199.861 22.3658L199.129 23.088C198.892 23.3255 198.773 23.6142 198.773 23.9544C198.773 24.2881 198.892 24.5802 199.129 24.8305L203.808 29.5L199.129 34.1792C198.891 34.4167 198.773 34.7053 198.773 35.0456C198.773 35.3793 198.891 35.6715 199.129 35.9217L199.861 36.6437C200.098 36.8812 200.387 37 200.727 37C201.067 37 201.356 36.8812 201.594 36.6437L207.871 30.3761C208.108 30.1258 208.227 29.8337 208.227 29.5C208.227 29.1598 208.108 28.8709 207.871 28.6334Z" fill="white"/>
<path d="M37.958 23.94C39.062 23.94 40.034 24.114 40.874 24.462C41.726 24.798 42.464 25.296 43.088 25.956L41.594 27.954C41.078 27.414 40.52 27.012 39.92 26.748C39.332 26.472 38.66 26.334 37.904 26.334C37.244 26.334 36.77 26.442 36.482 26.658C36.194 26.874 36.05 27.138 36.05 27.45C36.05 27.702 36.164 27.918 36.392 28.098C36.632 28.266 37.016 28.41 37.544 28.53L39.542 28.98C40.73 29.256 41.6 29.658 42.152 30.186C42.704 30.714 42.98 31.416 42.98 32.292C42.98 33.132 42.764 33.846 42.332 34.434C41.9 35.01 41.306 35.448 40.55 35.748C39.794 36.036 38.93 36.18 37.958 36.18C36.758 36.18 35.66 35.988 34.664 35.604C33.668 35.208 32.876 34.692 32.288 34.056L33.782 31.986C34.226 32.502 34.826 32.934 35.582 33.282C36.338 33.618 37.118 33.786 37.922 33.786C39.17 33.786 39.794 33.42 39.794 32.688C39.794 32.436 39.698 32.226 39.506 32.058C39.326 31.878 38.99 31.728 38.498 31.608L36.302 31.122C35.63 30.978 35.03 30.774 34.502 30.51C33.986 30.246 33.578 29.898 33.278 29.466C32.978 29.022 32.828 28.47 32.828 27.81C32.828 27.066 33.032 26.406 33.44 25.83C33.848 25.242 34.436 24.78 35.204 24.444C35.972 24.108 36.89 23.94 37.958 23.94ZM48.0116 24.12V36H44.9156V24.12H48.0116ZM55.56 36.18C54.504 36.18 53.562 35.946 52.734 35.478C51.918 35.01 51.282 34.32 50.826 33.408C50.37 32.496 50.142 31.386 50.142 30.078C50.142 28.806 50.382 27.714 50.862 26.802C51.342 25.878 52.026 25.17 52.914 24.678C53.814 24.186 54.87 23.94 56.082 23.94C57.438 23.94 58.524 24.186 59.34 24.678C60.168 25.158 60.81 25.926 61.266 26.982L58.404 28.116C58.248 27.504 57.972 27.06 57.576 26.784C57.18 26.508 56.688 26.37 56.1 26.37C55.212 26.37 54.522 26.688 54.03 27.324C53.55 27.948 53.31 28.86 53.31 30.06C53.31 31.332 53.556 32.28 54.048 32.904C54.54 33.516 55.278 33.822 56.262 33.822C56.946 33.822 57.516 33.66 57.972 33.336C58.428 33.012 58.656 32.514 58.656 31.842V31.662H55.938V29.592H61.284V36H59.178L59.052 34.542C58.716 35.07 58.254 35.478 57.666 35.766C57.09 36.042 56.388 36.18 55.56 36.18ZM74.0398 24.12V31.158C74.0398 34.506 72.2698 36.18 68.7298 36.18C66.9898 36.18 65.6698 35.766 64.7698 34.938C63.8698 34.098 63.4198 32.838 63.4198 31.158V24.12H66.5338V31.212C66.5338 32.904 67.2658 33.75 68.7298 33.75C70.2058 33.75 70.9438 32.904 70.9438 31.212V24.12H74.0398ZM79.5291 24.12V36H76.4331V24.12H79.5291ZM82.1636 36V24.12H91.4156V26.514H85.2596V28.926H90.1556V31.176H85.2596V33.606H91.6496V36H82.1636ZM104.229 24.12V36H100.791L97.1011 29.574L96.2011 27.81H96.1831L96.2551 30.006V36H93.5191V24.12H96.9571L100.647 30.546L101.547 32.31H101.565L101.493 30.114V24.12H104.229ZM116.851 24.12V26.514H112.981V36H109.885V26.514H105.997V24.12H116.851ZM118.621 36V24.12H127.873V26.514H121.717V28.926H126.613V31.176H121.717V33.606H128.107V36H118.621ZM144.818 24.12V26.514H140.948V36H137.852V26.514H133.964V24.12H144.818ZM146.587 36V24.12H155.839V26.514H149.683V28.926H154.579V31.176H149.683V33.606H156.073V36H146.587ZM171.695 24.12V36H168.959V30.546L169.049 26.892H169.013L166.079 36H163.577L160.643 26.892H160.607L160.697 30.546V36H157.943V24.12H162.353L164.225 30.168L164.891 32.688H164.927L165.611 30.186L167.465 24.12H171.695ZM173.084 36L177.26 24.12H180.968L185.126 36H181.94L181.13 33.318H177.026L176.198 36H173.084ZM178.574 28.35L177.674 31.212H180.482L179.618 28.368L179.096 26.496H179.06L178.574 28.35Z" fill="white"/>
</svg>
